<svg id="Layer_1" data-name="Layer 1" xmlns="http://www.w3.org/2000/svg" viewBox="0 0 612 612"><defs><style>.cls-1{fill:#fff;}.cls-2{fill:#29abe2;}.cls-3{fill:none;}.cls-4{font-size:84px;font-family:HelveticaNeue-Medium, Helvetica Neue;font-weight:500;}</style></defs><path class="cls-1" d="M500,800.5a300.48,300.48,0,1,1,212.49-88A298.57,298.57,0,0,1,500,800.5Z" transform="translate(-194 -194)"/><path d="M500,205a294.12,294.12,0,1,1-114.82,23.18A293.11,293.11,0,0,1,500,205m0-11c-169,0-306,137-306,306S331,806,500,806,806,669,806,500,669,194,500,194Z" transform="translate(-194 -194)"/><circle class="cls-2" cx="306" cy="306" r="195"/><g id="KBSraN"><path class="cls-3" d="M692.14,498.36c5.45,96.34-80.81,188.56-183.73,192.49-119,4.54-197.52-96.15-201.23-182.65-5.07-118.09,94.65-199.62,183.18-203C616,300.3,699.23,409.9,692.14,498.36ZM409.92,344.13c4.8-3.7,8.67-7.64,13.33-10.06,7.86-4.07,16.27-7.08,24.36-10.72,5.93-2.67,11.69-5.71,17.61-8.4,2.93-1.34,6.06-3.25,9.06-3.17,6.74.16,13.45,1.42,20.18,2.17,3.18.36,6.38.55,9.57.82l0,2.84-20.69,1.47c6,4.28,12.67,8.29,18.21,13.53,2,1.92,3,8.16,1.54,10-6.94,8.62-9,18-7.71,28.63.73,6.16-2.34,8-8,5.24-7.05-3.42-12.76-8.35-15.12-16-2.73-8.82-4.69-17.88-7.23-26.77-.54-1.9-2.71-5.12-3.2-5a20.6,20.6,0,0,0-8.09,4.45c-1,1-.52,4.1,0,6.05a91.21,91.21,0,0,0,3.58,9.15c4.86,4.16,5.71,9.76,3.75,15.88-1.45,4.54-3.8,8.78-6.11,14-7.64.84-12-7.06-18.55-10.88-.31-.18.29-3.42,1.07-3.73,6.9-2.8,5.6-8.23,5.3-14.21L432.3,362.91c-.63,2.93-.27,7.73-2.36,9.34-2.52,1.95-7.13,1.2-9.79,1.49-4.83,3.95-9.9,7.79-14.6,12-3.62,3.27-3.84,8.42-.14,10.59,8.22,4.82,15.53,9.52,14.18,19,2.22-4.18,5-9.11,7.43-14.21a16.13,16.13,0,0,0,1.23-6.31c.14-4.51-.46-9.08,0-13.55a8.49,8.49,0,0,1,12.63-6.52c3.11,1.61,6,3.68,9.29,5.75a28.78,28.78,0,0,0-1.8,2.7,31.33,31.33,0,0,0-1.26,3.44,12.65,12.65,0,0,0,2.64-1.18c6.18-5.95,6.54-5.68,10.28,2.16,2.29,4.78,5,9.66,8.7,13.4,5.24,5.36,9,10.88,9.53,18.2a49.59,49.59,0,0,1,7.8,12.05c.4.89-2.77,4.57-3.09,4.41-8.58-4.06-13.35-2-16.2,7.51-1,3.45-6.54,5.39-9.55,8.47C454,455,451.88,454.35,449,450c-2.55,3.78-4.68,7.46-5.54,11.41-.75,3.46-1.64,5.27-5.54,5.31-1.49,0-3.39,1.66-4.34,3.07-2.2,3.27-3.93,6.85-6.47,11.41,3.48,6.12,1.52,12.94-3.75,19.66a57.3,57.3,0,0,0-7,12.36c-1.93,4.39,2.22,11.06,6.88,12.83,2.1.79,3.79,2.68,5.67,4.07-1.86.68-3.73,1.33-5.56,2.06a6.38,6.38,0,0,0-1.53,1c-5.18,4.09-7,3.64-9.72-2.5-1-2.29-1.22-5.33-2.88-6.87a38.29,38.29,0,0,0-11.3-7.66c-1.38-.55-4.37,2.89-7.35,5-.06,0-1.15-.35-2.25-.56-8.49-1.65-13.36.7-14.37,7.28-1.87,12.24,1.23,23,10,32,3.73,3.82,6,3.25,7.45-1.93.38-1.3,0-3.36.83-3.91,2.4-1.65,5.13-3.45,7.87-3.69,1.1-.1,3.21,3.58,3.67,5.78.68,3.3.42,6.82.35,10.24-.1,4.89,2,7.11,7,6.63,5.51-.52,8.71,1.72,8.29,7.79-.1,1.57-.21,3.58.62,4.69,2.76,3.72,5.5,9.32,9.08,10s9.26,1.59,13.19-4.27c3.19-4.77,8.31-10.56,15.51-9.87,3.16.31,6,3.41,9.09,5.17a4.05,4.05,0,0,0,2.45.76c5.95-1.32,11.86-2.8,17.77-4.22,3.93,12.83,13.3,16.49,25.37,16.76,3.14.08,7.35,2,9.08,4.41,2.75,3.93,3.83,9,5.6,13.59,3-.74,7.25-2.68,11.54-2.66a65.57,65.57,0,0,1,18.5,2.54c4.24,1.28,8.88,4,11.27,7.53,1.34,2-1.13,7-2.61,10.32-3.2,7.2-6.79,14.23-10.39,21.25-1.83,3.58-3.47,7.49-6.15,10.35-5.9,6.29-12.4,12-18.65,17.95,54.28-9.32,98.1-34.5,126.89-82.14,8.9-14.75,14-31.16,16.63-48.46-3.89,3.13-6.52,6.91-9.3,10.59-2.55,3.36-5.31,7.15-9.9,3a22.58,22.58,0,0,1-5.68-7.61c-4-9.69-9.62-18.7-8.45-30.29.94-9.25-1.89-18.84-1.27-28.16.61-9-1.74-18.7,3.88-27.1.41-.63.2-1.73.15-2.61-.58-9.84-1.18-19.68-1.74-28.9-3-1.6-7.4-2.61-9.54-5.38-3.4-4.39-5.16-10-7.84-15-5-9.33-5.09-9.28,4.16-13.33.32-.14.45-.73,1-1.74-4.17-3.74-3.93-12.08-12.7-11.73-.76,0-2-2.81-2.32-4.45-.26-1.46.51-3.11.82-4.68-4.69,5.6-7.87,3.81-10.33-1-1.79,1.09-4.36,3.24-4.82,2.85-3.81-3.15-10-6.63-10.18-10.28-.41-7.85-3.13-12.35-11-14.33,1.35-2.83,2.36-5,4-8.45l26.39,16.59c2.18-11.7-14-9.6-12.32-20.16-2.94,6.24-6,4.54-9.26,1.19-1.57-1.63-3.2-4.55-4.81-4.56-7.56,0-10.55-6.29-15.48-10-5.7-4.29-12.06-7.74-18.22-11.41-5.1-3-10.33-5.88-15.5-8.81l.58-2.06,10.86-4.07c-47.68-11.32-92.59-5.29-135.4,17.07l2,1.6c-1.43,3.34-2.87,6.68-4.51,10.52Zm-74,161.19,3.28-.83c.91,3.8,1.91,7.59,2.73,11.41,4.11,19.18,11.49,36.72,26,50.48a25.46,25.46,0,0,0,9.29,5.38c7.13,2.36,14.95,2.32,20.72,8.67,2.47,2.72,8.16,2.54,10.56,5.28,6.82,7.77,14.08,14.42,22.92,16.41,3.16-.74,5.95-2.24,6.92-1.46,5.4,4.29,9.74,10.51,7.77,17.07-2.17,7.24-1.9,13.33,2,19.26a44.62,44.62,0,0,0,9.07,10.38c5.65,4.52,11.48,9.26,18,12.1,9.25,4,16.8,9,22.68,17.57,3.4,5,9.64,10,15.29,10.94,10.69,1.84,18.79-4.41,24.49-13.65,1.47-2.38,4.21-4,6.1-6.13,3.31-3.82,7-7.49,9.48-11.83,4-7,7.22-14.5,10.59-21.87,1.25-2.73,3.61-7,2.59-8.29a19.65,19.65,0,0,0-9.81-6.14c-3.6-1-8.16,1-11.49-.3-6.18-2.46-11.32-2.77-17.3.73-3.56,2.09-6.08-.11-5.07-4.73,1.78-8.2-3-13.94-11.61-13.72-11.59.3-19.87-4.86-25.79-14.79-3.3,0-7.75-1.36-10.3.27-6.1,3.9-10.9,1.24-16.11-1.1-.91,2.06-1.81,4.12-3.49,7.94-1.15-4.22-1.74-6.41-2.76-10.14L439.8,598.35c-.56-.11-3.06-1.44-4.8-.78-6.14,2.35-10.42.14-13.3-4.93-2-3.58-2.78-7.86-4.62-11.57-1.11-2.24-3-5.35-4.91-5.71-9.8-1.81-9.89-1.53-10.67-11.47-.2-2.5.22-5.06-.16-7.52-.23-1.48-1.46-2.81-2.25-4.2-1.63,1-3.53,1.69-4.79,3-.79.84-.53,2.62-.92,3.93-1.94,6.57-6.29,7.66-10.93,2.66-8.32-9-12.53-19.28-11.1-31.81,1-8.81,5.71-13,14.59-12.18,1.73.16,4.58-.15,5.15-1.2,2.42-4.44,6.1-3.72,9.5-2.61,5.8,1.89,10.36,5.21,12.07,11.76.76,3,3,5.5,4.57,8.24l2.18-1.28c-1-2.65-2.43-5.23-3-8-.9-4.45-2.59-9.39-1.47-13.44,1.4-5,5.61-9.18,8.06-14,1.6-3.16,3.5-7,3-10.2-.78-5.37-5.08-10.94,3.92-13.24.41-.11.84-1.2.82-1.81-.3-6.79,4.21-8.24,9.54-8.36,1-7.06,9.12-19.5,12-18.12l1.59,5.69,12.26-10.86c-3.84-.24-8.16.75-10.26-1-2.35-1.93-2.68-6.31-4.09-10.18l-9.32,8-1.84-1.74c1.85-2.69,3.1-6.52,5.65-7.86,9.17-4.81,18.78-8.78,29.51-13.65-3.7-4.34-7.39-8.44-10.79-12.76a65.93,65.93,0,0,1-5.91-9,86.25,86.25,0,0,1-3.6-8.4l-10.05,7.44c-.25-4.08.4-6.74-.64-8-2.37-2.78-5.26-6.05-8.51-6.9-3.62-.93-6.13,2.24-6.13,6.39,0,3.42.33,6.88-.1,10.25A70.21,70.21,0,0,1,427.51,405a85.87,85.87,0,0,1-4.17,10.1c-1,2.2-2.2,4.3-3.31,6.45-1-2-3.2-4.18-2.93-6,1.29-8.32-4.6-12.11-9.89-15.65-7.48-5-8.5-10.52-2.09-17,3.63-3.7,6.95-7.75,10.86-11.13,1.42-1.23,4.14-1.19,6.28-1.29a43.11,43.11,0,0,1,6.29.56c.16-2,.21-4,.49-6,.26-1.84.42-5.07,1.21-5.26,5.05-1.21,6.68-4.67,7.9-9.15.39-1.42,3-2.23,4.56-3.33,1,1.55,2.37,3,2.85,4.67,1.81,6.36-1.22,10.71-6.7,13.85l9.53,8.18,7.65-6.46-5.13-7.08,1-1.35,8.49,3c-1.61-3.87-2-7.54-3.82-8.59-3.71-2.1-3.89-4.22-2.87-7.8.95-3.37-4.1-9.37-7.66-9.55-3-.16-6,.21-8.89-.16-2.37-.29-4.65-1.34-7-2l-.32-2.58c-4.59,3.84-9.86,7.12-13.6,11.67s-6.72,5.71-10.81.95c-.7-.82-1.55-1.5-4.26-4.07l9.24-4.11-2-3.13c-2.21.64-4.83.71-6.55,2-11.68,8.76-23.19,17.73-34.69,26.72-3.37,2.64-6.33,5.45-2.62,10.22.67.86-.14,3.36-.9,4.76-4.54,8.36-9.93,16.31-13.75,25-4.35,9.88-5.8,21.29-11.26,30.39-13.41,22.37-9,45.58-6,69a110.93,110.93,0,0,0,2.91,16c2,7.12,4.82,14,7.27,21l1.26-.52Q340,521.23,335.89,505.32Zm168.9,183.32c-3.63-4.15-6.64-7.69-9.77-11.13s-5.93-7.82-9.85-10.1c-11.52-6.7-23.92-11.68-33.75-21.35-5.5-5.41-10.91-17.53-8.55-24.81s.65-12.8-5.13-17.41c-2.62.46-5.16,1.77-6.81,1-8-3.49-16.14-6.86-21.29-14.8-1.58-2.43-4.76-3.94-7.4-5.55-3.44-2.09-7.06-3.89-10.63-5.78-1.72-.91-3.5-2.47-5.25-2.47-16.88,0-24.18-13.42-33.68-23.71-3-3.22-5.44-6.89-8.16-10.33-1.12-1.41-2.62-2.6-3.43-4.16-4.57-8.73-8.1-17.63-8.49-27.85a123.57,123.57,0,0,0-3.91-28c-3.85-14-1.86-27.11,2.88-40.18,1.69-4.68,5.51-8.92,6.09-13.64,1.74-14,9.19-25.53,15-37.81,1.66-3.54,3.53-7,5.66-11.15-3.5.84-5.78.93-7.56,1.93a15.88,15.88,0,0,0-4.79,4.49c-21.73,29.73-34.15,63-36.43,99.74a191,191,0,0,0,148,198.67C472.75,687.8,488.27,689.88,504.79,688.64Zm166.27-110c23.29-30,26.44-133.08,4.28-148.34.62,4.29,1.09,7.57,1.63,11.32-10.25-.44-12.62-8.77-17.06-16.11-2.87,3.56-4.44,7.24-6.4,10.71-1.36,2.42-3.28,4.51-4.86,6.81s-4.15,4.51-4.16,6.78c0,7.41.94,14.81,1.42,22.22a17.28,17.28,0,0,1-.53,4.44c-.83,4.1-2.41,8.17-2.51,12.28-.24,9.85-.43,19.79.52,29.58,1,10.43-2.73,21.4,3.54,31.34,2.2,3.48,3.09,7.78,5.28,11.27,1.6,2.54,4.35,4.36,6.58,6.5,2-2.35,4.1-4.67,6.12-7,1.45-1.69,2.55-3.85,4.32-5s4.43-1.7,6.68-2.5c.31,2.65,1.37,5.48.78,7.9C675.21,566.82,673,572.69,671.06,578.64ZM591.93,353.72l4.6-5.1c1.25,2,2.41,4.08,3.78,6a29.92,29.92,0,0,0,4.09,4.94c2.17,2,6.29,3.33,6.68,5.48,1.75,9.62,12.07,17.45,4.34,29.86,12.6-2.26,12.49,7.68,16.08,13.52.37.6-5,4.75-7.93,7.38,3.42,6.86,6.87,14.52,11.12,21.71.95,1.6,5.2,2.76,7,2,2.14-.92,4.52-4.14,4.56-6.41.08-3.86-1.83-7.71-2.47-11.64-1.18-7.33-6-14.77-.32-21.72l26.3,14.63c-1.1-3.39-1.48-5.84-2.61-7.88-24.7-44.66-61.53-74.75-110-90.29-5.17-1.66-11.45.15-17.22.35-.16,1.09-.31,2.18-.47,3.26,4.4,2.06,8.81,4.09,13.2,6.17a23,23,0,0,1,3.57,2C568.22,336.58,580.2,345.24,591.93,353.72Zm-99,21.3c0-4.06-.56-8.19.13-12.09,1.07-6,1.9-12.41,4.81-17.53,5.15-9.07,5.65-8.66-3.35-14.21-4.49-2.77-8.36-6.55-12.89-9.24-2.56-1.51-5.88-1.71-9.09-2.56.84-2.19,1.38-3.6,2.16-5.66l-36.63,16.32c7.3,1.33,13.84,2.25,19.75-2.78,4.06-3.46,7.95-1.23,9.39,4.15.52,2,1,3.92,1.71,5.84,1.35,3.87,4.45,8,3.92,11.53C471.15,360.23,480.54,373.57,492.92,375Zm179.23,40.56c-5.86,3.17-10,3.43-14.17-1.91-3.21-4.08-7.92-7-12-10.41l-2.82,1.26c2.08,11.76,4.15,23.52,6,34,2.56-4.49,6.25-10.93,10.67-18.64,4.32,7.12,7.64,12.58,11.27,18.58l5.61-12.77Zm-62.58-27c4.74-4.6,4.94-8.07.29-11.43-7.14-5.15-14.11-10.54-21.37-15.52-1.22-.84-3.5-.12-6.08-.12,3.54,3.25,8.16,5.52,8.25,7.95.28,7.62,4.35,12.13,10,16.21C604.76,381,607.66,382.67,609.57,388.61ZM469.86,418c-5.43,5.53-9.72,9.61-13.6,14-.81.93-.66,4.27,0,4.59,1.78.87,5,1.75,6,.83C467.09,432.85,470.64,427.38,469.86,418Zm.89,12.14c2.36.54,4.72,1,7.05,1.62,1.9.48,3.77,1,5.65,1.57l.94-2.1-10.65-12.45Z" transform="translate(-194 -194)"/><path class="cls-1" d="M335.89,505.32q4.11,15.91,8.23,31.83l-1.26.52c-2.45-7-5.23-13.91-7.27-21a110.93,110.93,0,0,1-2.91-16c-3-23.38-7.44-46.59,6-69,5.46-9.1,6.91-20.51,11.26-30.39,3.82-8.66,9.21-16.61,13.75-25,.76-1.4,1.57-3.9.9-4.76-3.71-4.77-.75-7.58,2.62-10.22,11.5-9,23-18,34.69-26.72,1.72-1.29,4.34-1.36,6.55-2l2,3.13-9.24,4.11c2.71,2.57,3.56,3.25,4.26,4.07,4.09,4.76,6.95,3.74,10.81-.95s9-7.83,13.6-11.67l.32,2.58c2.32.71,4.6,1.76,7,2,2.92.37,5.93,0,8.89.16,3.56.18,8.61,6.18,7.66,9.55-1,3.58-.84,5.7,2.87,7.8,1.85,1,2.21,4.72,3.82,8.59l-8.49-3-1,1.35,5.13,7.08-7.65,6.46-9.53-8.18c5.48-3.14,8.51-7.49,6.7-13.85-.48-1.69-1.87-3.12-2.85-4.67-1.58,1.1-4.17,1.91-4.56,3.33-1.22,4.48-2.85,7.94-7.9,9.15-.79.19-.95,3.42-1.21,5.26-.28,2-.33,4-.49,6a43.11,43.11,0,0,0-6.29-.56c-2.14.1-4.86.06-6.28,1.29-3.91,3.38-7.23,7.43-10.86,11.13-6.41,6.51-5.39,12,2.09,17,5.29,3.54,11.18,7.33,9.89,15.65-.27,1.8,1.89,4,2.93,6,1.11-2.15,2.32-4.25,3.31-6.45a85.87,85.87,0,0,0,4.17-10.1,70.21,70.21,0,0,0,2.62-11.88c.43-3.37.1-6.83.1-10.25,0-4.15,2.51-7.32,6.13-6.39,3.25.85,6.14,4.12,8.51,6.9,1,1.23.39,3.89.64,8l10.05-7.44a86.25,86.25,0,0,0,3.6,8.4,65.93,65.93,0,0,0,5.91,9c3.4,4.32,7.09,8.42,10.79,12.76-10.73,4.87-20.34,8.84-29.51,13.65-2.55,1.34-3.8,5.17-5.65,7.86l1.84,1.74,9.32-8c1.41,3.87,1.74,8.25,4.09,10.18,2.1,1.73,6.42.74,10.26,1L454,451.25l-1.59-5.69c-2.91-1.38-11.05,11.06-12,18.12-5.33.12-9.84,1.57-9.54,8.36,0,.61-.41,1.7-.82,1.81-9,2.3-4.7,7.87-3.92,13.24.47,3.21-1.43,7-3,10.2-2.45,4.82-6.66,9-8.06,14-1.12,4.05.57,9,1.47,13.44.55,2.74,2,5.32,3,8L417.23,534c-1.57-2.74-3.81-5.29-4.57-8.24-1.71-6.55-6.27-9.87-12.07-11.76-3.4-1.11-7.08-1.83-9.5,2.61-.57,1-3.42,1.36-5.15,1.2-8.88-.82-13.58,3.37-14.59,12.18-1.43,12.53,2.78,22.85,11.1,31.81,4.64,5,9,3.91,10.93-2.66.39-1.31.13-3.09.92-3.93,1.26-1.33,3.16-2.05,4.79-3,.79,1.39,2,2.72,2.25,4.2.38,2.46,0,5,.16,7.52.78,9.94.87,9.66,10.67,11.47,1.95.36,3.8,3.47,4.91,5.71,1.84,3.71,2.59,8,4.62,11.57,2.88,5.07,7.16,7.28,13.3,4.93,1.74-.66,4.24.67,4.8.78l12.82-14.12c1,3.73,1.61,5.92,2.76,10.14,1.68-3.82,2.58-5.88,3.49-7.94,5.21,2.34,10,5,16.11,1.1,2.55-1.63,7-.27,10.3-.27,5.92,9.93,14.2,15.09,25.79,14.79,8.64-.22,13.39,5.52,11.61,13.72-1,4.62,1.51,6.82,5.07,4.73,6-3.5,11.12-3.19,17.3-.73,3.33,1.33,7.89-.69,11.49.3a19.65,19.65,0,0,1,9.81,6.14c1,1.28-1.34,5.56-2.59,8.29-3.37,7.37-6.59,14.85-10.59,21.87-2.47,4.34-6.17,8-9.48,11.83-1.89,2.18-4.63,3.75-6.1,6.13-5.7,9.24-13.8,15.49-24.49,13.65-5.65-1-11.89-6-15.29-10.94-5.88-8.59-13.43-13.56-22.68-17.57-6.54-2.84-12.37-7.58-18-12.1A44.62,44.62,0,0,1,448,637c-3.87-5.93-4.14-12-2-19.26,2-6.56-2.37-12.78-7.77-17.07-1-.78-3.76.72-6.92,1.46-8.84-2-16.1-8.64-22.92-16.41-2.4-2.74-8.09-2.56-10.56-5.28-5.77-6.35-13.59-6.31-20.72-8.67a25.46,25.46,0,0,1-9.29-5.38c-14.5-13.76-21.88-31.3-26-50.48-.82-3.82-1.82-7.61-2.73-11.41Z" transform="translate(-194 -194)"/><path class="cls-1" d="M671.06,578.64c1.92-5.95,4.15-11.82,5.63-17.88.59-2.42-.47-5.25-.78-7.9-2.25.8-4.76,1.21-6.68,2.5s-2.87,3.35-4.32,5c-2,2.37-4.08,4.69-6.12,7-2.23-2.14-5-4-6.58-6.5-2.19-3.49-3.08-7.79-5.28-11.27-6.27-9.94-2.52-20.91-3.54-31.34-.95-9.79-.76-19.73-.52-29.58.1-4.11,1.68-8.18,2.51-12.28a17.28,17.28,0,0,0,.53-4.44c-.48-7.41-1.46-14.81-1.42-22.22,0-2.27,2.63-4.56,4.16-6.78s3.5-4.39,4.86-6.81c2-3.47,3.53-7.15,6.4-10.71,4.44,7.34,6.81,15.67,17.06,16.11-.54-3.75-1-7-1.63-11.32C697.5,445.56,694.35,548.67,671.06,578.64Z" transform="translate(-194 -194)"/><path class="cls-1" d="M591.93,353.72c-11.73-8.48-23.71-17.14-35.71-25.77a23,23,0,0,0-3.57-2c-4.39-2.08-8.8-4.11-13.2-6.17.16-1.08.31-2.17.47-3.26,5.77-.2,12.05-2,17.22-.35,48.49,15.54,85.32,45.63,110,90.29,1.13,2,1.51,4.49,2.61,7.88l-26.3-14.63c-5.71,6.95-.86,14.39.32,21.72.64,3.93,2.55,7.78,2.47,11.64,0,2.27-2.42,5.49-4.56,6.41-1.81.78-6.06-.38-7-2-4.25-7.19-7.7-14.85-11.12-21.71,2.88-2.63,8.3-6.78,7.93-7.38-3.59-5.84-3.48-15.78-16.08-13.52,7.73-12.41-2.59-20.24-4.34-29.86-.39-2.15-4.51-3.51-6.68-5.48a29.92,29.92,0,0,1-4.09-4.94c-1.37-1.93-2.53-4-3.78-6Z" transform="translate(-194 -194)"/><path class="cls-1" d="M492.92,375c-12.38-1.45-21.77-14.79-20.09-26.23.53-3.57-2.57-7.66-3.92-11.53-.67-1.92-1.19-3.88-1.71-5.84-1.44-5.38-5.33-7.61-9.39-4.15-5.91,5-12.45,4.11-19.75,2.78l36.63-16.32c-.78,2.06-1.32,3.47-2.16,5.66,3.21.85,6.53,1.05,9.09,2.56,4.53,2.69,8.4,6.47,12.89,9.24,9,5.55,8.5,5.14,3.35,14.21-2.91,5.12-3.74,11.56-4.81,17.53C492.36,366.83,492.92,371,492.92,375Z" transform="translate(-194 -194)"/><path class="cls-1" d="M609.57,388.61c-1.91-5.94-4.81-7.62-8.9-2.91-5.66-4.08-9.73-8.59-10-16.21-.09-2.43-4.71-4.7-8.25-7.95,2.58,0,4.86-.72,6.08.12,7.26,5,14.23,10.37,21.37,15.52C614.51,380.54,614.31,384,609.57,388.61Z" transform="translate(-194 -194)"/><path class="cls-1" d="M469.86,418c.78,9.42-2.77,14.89-7.62,19.46-1,.92-4.21,0-6-.83-.65-.32-.8-3.66,0-4.59C460.14,427.57,464.43,423.49,469.86,418Z" transform="translate(-194 -194)"/><path class="cls-1" d="M470.75,430.1l3-11.36,10.65,12.45-.94,2.1c-1.88-.53-3.75-1.09-5.65-1.57C475.47,431.14,473.11,430.64,470.75,430.1Z" transform="translate(-194 -194)"/><path class="cls-1" d="M411.62,544.18c10.57-4.38,15.95,6.54,24.53,8.16l-.88,2.5Z" transform="translate(-194 -194)"/><path class="cls-1" d="M444.21,554l9.86,3.43C447.5,562.77,446.19,562.48,444.21,554Z" transform="translate(-194 -194)"/><path class="cls-1" d="M533.91,349.14l7.88-6.56c2.42,2.51,4.88,4.93,7.09,7.57.2.24-1.53,2.86-2,2.75C543,352,539.17,350.73,533.91,349.14Z" transform="translate(-194 -194)"/></g><g id="ON8MCC"><path d="M716,597.19c-6.36,19.56-18.86,34-36.77,43.85-2.25,1.23-4.59,2.3-6.87,3.47-.09,0-.07.29-.22,1,8.4,0,15.84-3.33,24.6-6.37-1.94,2.88-3.18,4.81-4.51,6.68-12.43,17.44-26.79,32.87-45.39,44-2.61,1.55-4.71,2-7.55.53-6.44-3.26-13.07-6.15-19.62-9.19l-.46.06-.38.07.94-.16a20.15,20.15,0,0,0,3.12,3.55c4.6,3.34,9.34,6.5,14.67,10.18a143.28,143.28,0,0,1-31.47,12.12c-1.32.33-3.13-.44-4.48-1.14-6.24-3.26-12.4-6.67-18.59-10l-.29.23c.05,0,.13,0,.15,0a3.53,3.53,0,0,0,.21-.32,25,25,0,0,0,2.1,4.42c2.37,3.2,5,6.23,8.24,10.29-9.16,1.23-17.34,2.45-25.56,3.31-1.29.13-2.88-1.22-4.12-2.16-5.19-3.93-10.31-8-15.46-12l-.78.69,10.09,13.86-51.72,12-.49,1.56c14.89,11.31,30.41,21.93,41.76,37.76-34.54-14-70-15.7-107.31-8a49.36,49.36,0,0,1,3-5.33c4.74-6.29,9.47-12.58,14.4-18.72,4.43-5.5,4.61-5.52-1.62-9.25A276.39,276.39,0,0,0,401.49,699c-7.42-2.5-14.67-5.5-23.07-8.67l9.21-7.35-.17-.14.07.33c-3.21.8-6.61,1.17-9.59,2.49a9.93,9.93,0,0,1-10.38-.82c-4.43-2.88-9-5.5-14.42-8.74l18.1-11-.26-.9c-5.72,1.37-11.65,2.2-17.13,4.25-6.08,2.29-10.33.67-14.26-3.92-7.11-8.3-14.51-16.34-21.42-24.8-2.18-2.67-3.19-6.3-4.74-9.49l1.09-.55L336.45,640l.88-1.27-5.13-4.47c-13.49-11.83-24.38-25.54-31.06-42.39-4.06-10.21-4.76-21.46-1.21-30.09,41,50,91.56,87.23,150,115.43-3.81.18-6.83.24-9.84.48-2.48.2-5.19-.11-6.37,3.17-.24.68-2.15,1-3.32,1.08-9.13.63-11.48,5.36-6.42,14,4.3-6.37,10.34-5.45,16.5-4.1,11.07,2.41,21.69,6,31.37,12,3,1.84,5.71,4,8.52,6.06,1.2-3.86,1.2-3.86-6.76-13.75l.62-1,8.11,5.41c.18-2.47.18-2.47-7.46-13.2l5.32,2.34.2-.21-.29.22c-1.51-2.18-2.73-4.67-4.63-6.42-1.67-1.54-4.1-2.25-6.93-3.71,11.6-3.2,22.32-6.44,33.18-9.12,56.41-13.93,106.48-40.47,151.49-76.73,21.4-17.23,42-35.45,63-53.22l4.78-4.08c-3.08,16.55-7.73,31.26-16.4,44.49s-21.51,22.36-33.42,32.51c9.16-.68,17.65-3.49,25.87-7.29q9.57-4.42,19.1-8.9Z" transform="translate(-194 -194)"/><path d="M436.56,681.75l7.53.36C440.68,685.55,439,685.66,436.56,681.75Z" transform="translate(-194 -194)"/><path d="M716.13,597.28l.23-.63c-.1.18-.21.36-.32.54Z" transform="translate(-194 -194)"/></g><text class="cls-4" transform="translate(90.47 311.9) rotate(-84.59)">E</text><text class="cls-4" transform="matrix(0.34, -0.94, 0.94, 0.34, 94.26, 262.33)">N</text><text class="cls-4" transform="translate(113.15 208.31) rotate(-55.02)">D</text><text class="cls-4" transform="translate(146.18 161.4) rotate(-41.05)">V</text><text class="cls-4" transform="matrix(0.85, -0.53, 0.53, 0.85, 183.73, 129.96)">I</text><text class="cls-4" transform="matrix(0.93, -0.36, 0.36, 0.93, 200.64, 117.35)">R</text><text class="cls-4" transform="translate(252.24 96.36) rotate(-5.83)">O</text><text class="cls-4" transform="matrix(1, 0.09, -0.09, 1, 313.17, 91.8)"> </text><text class="cls-4" transform="translate(334.28 91.79) rotate(15.35)">R</text><text class="cls-4" transform="translate(388.16 106.36) rotate(29.88)">A</text><text class="cls-4" transform="translate(434.24 132.01) rotate(44.46)">C</text><text class="cls-4" transform="translate(474.6 173.68) rotate(54.95)">I</text><text class="cls-4" transform="translate(487.97 190.08) rotate(64.71)">S</text><text class="cls-4" transform="translate(511.52 235.41) rotate(81.01)">M</text></svg>
