<svg id="Layer_1" data-name="Layer 1" xmlns="http://www.w3.org/2000/svg" viewBox="0 0 347.87 316.68"><defs><style>.cls-1{stroke:#000;stroke-miterlimit:10;stroke-width:5px;}</style></defs><path d="M359.5,600.5H534c34.71,0,70-8.92,98.9-28.58,31-21.08,53.93-53.6,56-91.83.83-15.23-.27-30.89-5.19-45.4a120.76,120.76,0,0,0-29.19-46.4c-28.88-28.92-69.51-43.92-109.87-46.05-15.08-.79-30.31-.24-45.4-.24H359.5c-16.09,0-16.11,25,0,25H532.22c29.06,0,57.07,6.19,81.8,21.18,13.62,8.26,26.85,20.19,35.2,32.7a107.42,107.42,0,0,1,5.92,10c.83,1.63,1.61,3.28,2.38,4.94,1.64,3.55-.73-2.18.61,1.49.42,1.14.86,2.26,1.25,3.41a92,92,0,0,1,3.21,11.67c.16.79.32,1.59.46,2.38,0-.21.58,3.72.33,1.95s.23,2.19.21,2c.12,1.22.21,2.44.28,3.67a159.6,159.6,0,0,1,0,18.3c-.11,1.83-.27,3.66-.51,5.48.34-2.65-.24,1.3-.27,1.5-.14.79-.3,1.59-.46,2.38A92,92,0,0,1,659,502.88c-.27.76-.57,1.51-.85,2.27-1.32,3.63.55-1.16-.37.94-.73,1.67-1.52,3.32-2.34,5a105.3,105.3,0,0,1-6.9,11.61c-.46.68-.94,1.36-1.42,2,0,0-2.45,3.26-1,1.46-1.16,1.48-2.37,2.93-3.61,4.35a122.64,122.64,0,0,1-9.34,9.6,107,107,0,0,1-19.67,14.58,131.75,131.75,0,0,1-23.24,11.19,156.85,156.85,0,0,1-54.85,9.64c-13.59,0-27.18,0-40.76,0H359.5c-16.09,0-16.11,25,0,25Z" transform="translate(-341.25 -283.82)"/><path class="cls-1" d="M463.5,354.6v62.62a5.65,5.65,0,0,1-8.47,4.89L400.8,390.8l-54.23-31.31a5.64,5.64,0,0,1,0-9.78L400.8,318.4,455,287.09A5.65,5.65,0,0,1,463.5,292Z" transform="translate(-341.25 -283.82)"/></svg>